<svg xmlns="http://www.w3.org/2000/svg" xmlns:xlink="http://www.w3.org/1999/xlink" viewBox="0 0 1611 522"><defs><style>.cls-1{fill:url(#linear-gradient);}.cls-2{fill:url(#linear-gradient-2);}.cls-3{fill:url(#linear-gradient-3);}.cls-4{fill:url(#linear-gradient-4);}</style><linearGradient id="linear-gradient" x1="-67.69" y1="486.08" x2="-483.94" y2="707.21" gradientTransform="translate(663.48 -141.6) rotate(8.63)" gradientUnits="userSpaceOnUse"><stop offset="0" stop-color="#00aeef"/><stop offset="0.78" stop-color="#2d388a"/></linearGradient><linearGradient id="linear-gradient-2" x1="-166.87" y1="299.38" x2="-583.12" y2="520.51" xlink:href="#linear-gradient"/><linearGradient id="linear-gradient-3" x1="-119.03" y1="389.44" x2="-535.28" y2="610.57" xlink:href="#linear-gradient"/><linearGradient id="linear-gradient-4" x1="462.83" y1="280.13" x2="1589.15" y2="280.13" gradientUnits="userSpaceOnUse"><stop offset="0" stop-color="#2d388a"/><stop offset="1" stop-color="#00aeef"/></linearGradient></defs><g id="Layer_2" data-name="Layer 2"><path class="cls-1" d="M419.55,471c-5.55.5-11.17,1.82-16.63,1.34-14.9-1.33-29.77-3.15-44.58-5.28q-44.56-6.4-89-13.39c-17.31-2.68-34.55-5.83-51.86-8.52s-34.79-5-52.16-7.68c-13.3-2-26.54-4.48-39.83-6.56-15.07-2.36-30.3-3.87-45.21-7-12.85-2.66-25.88-5.48-37.46-12.22-2.61-1.52-4.63-4-7.59-6.67,2.38-1.24,3.68-2.05,5.08-2.63q28.53-11.81,57.07-23.54c11.23-4.63,22.46-9.29,33.71-13.87,13.15-5.35,26.3-10.69,39.49-15.92,12.51-5,25-9.87,37.64-14.61,14.09-5.31,28.18-10.62,42.42-15.5,12-4.12,24.29-7.57,36.41-11.42,10-3.18,16.84,1.44,22.5,8.86,6.76,8.87,13.52,17.75,19.94,26.86,11.6,16.45,22.92,33.1,34.42,49.62,3.72,5.35,7.57,10.63,11.46,15.86,9.77,13.15,19.62,26.23,29.38,39.38,5.17,6.95,10.22,14,15.33,21Z"/><path class="cls-2" d="M336.46,58.17c-1.54,10.2-2.91,20.41-4.65,30.57-3.39,19.73-6.72,39.48-10.56,59.12-6.53,33.47-13.6,66.83-24.75,99.14-3.1,9-6,18.45-12.74,25.51a76.59,76.59,0,0,1-14.92,11.67q-14.55,9-29.73,17c-10.12,5.31-20.54,10-30.9,14.87-11.15,5.22-22.4,10.22-33.57,15.41-10.5,4.87-20.93,9.91-31.43,14.79s-21,9.67-31.58,14.47Q94.83,368.36,78,375.91C66.62,381,55.21,386,43.85,391.07c-2.74,1.24-5.33,2.83-8,4.16-2.12,1-3.75.16-3.45-2.08a28.74,28.74,0,0,1,2.54-9.38c1.58-3,4.13-5.55,6.43-8.14,7-7.91,14.22-15.68,21.22-23.61q20.58-23.28,41-46.68c8.4-9.58,16.71-19.24,25.11-28.83q19.61-22.36,39.27-44.69c8.22-9.36,16.4-18.74,24.65-28.07q20.41-23.12,40.89-46.18,12.26-13.83,24.49-27.65,20.8-23.35,41.64-46.67c7.11-8,14.11-16.12,21.25-24.1,3-3.34,6.57-5.7,11.35-5.58C335.27,53.64,336.91,54.88,336.46,58.17Z"/><path class="cls-3" d="M345.33,57.79c5.59,4.7,6.87,10.64,8.17,16.05,4.25,17.77,8,35.66,11.56,53.59,3.9,19.64,7.26,39.39,11.06,59,3.86,20,7.93,39.87,12,59.78,3.68,18.05,7.53,36.06,11.2,54.12,3.15,15.49,6.13,31,9.24,46.52,3.52,17.5,7.1,35,10.63,52.49,3.08,15.22,6.5,30.39,9,45.71.87,5.38-.56,11.14-1.09,16.72-.08.85-.95,1.64-1.9,3.19-2.92-4.48-5.62-8.36-8-12.41-8.47-14.18-17-28.33-25.22-42.64C377.47,384.83,363,359.69,349,334.33c-7.8-14.06-14.88-28.52-22.14-42.87-3.7-7.33-6.08-15-5.3-23.43,1.85-20.09,3.27-40.23,5.21-60.31,1.75-18.21,3.86-36.39,6-54.56,1.84-15.72,3.92-31.4,5.93-47.1q2.61-20.5,5.32-41C344.28,62.93,344.76,60.84,345.33,57.79Z"/><path class="cls-4" d="M538.61,267.43c8.76,15.3,12.63,22.73,16,29.72,3.27-7,7.14-14.27,15.9-29.57l15.9-28.23c3.57-6.39,8.92-10.55,16.94-10.55,7.73,0,14.56,4.45,17.24,13.67l25.11,87.37H615.13l-9.36-34.62c-3.12-11.3-5.2-19.32-6.84-27.34-3.26,7-7,14.56-13.81,27.48l-13.38,25c-5.2,9.8-10.25,11.14-17.68,11.14s-12.48-1.34-17.68-11.14L523,295.22c-7.28-13.67-10.84-20.66-14-27.34-1.49,7.87-3.72,16.19-6.69,27.34L493,329.84H462.83l25.7-87.37c2.68-9.22,9.66-13.67,17.39-13.67s13.22,4,16.79,10.55Z"/><path class="cls-4" d="M772.49,304.28l-19.76,25.56H657V230.43H772.19l-19.91,25.86H687.94v11.88h78.75L749,290.76H687.94v13.52Z"/><path class="cls-4" d="M796.56,265.2c9.36,0,16.79,5.35,16.79,14.56S805.92,294,796.56,294c-9.21,0-16.64-5.2-16.64-14.27S787.35,265.2,796.56,265.2Z"/><path class="cls-4" d="M897.6,267.43c8.77,15.3,12.63,22.73,16,29.72,3.27-7,7.13-14.27,15.9-29.57l15.9-28.23c3.56-6.39,8.91-10.55,16.94-10.55,7.72,0,14.56,4.45,17.23,13.67l25.11,87.37H974.12l-9.36-34.62c-3.12-11.3-5.2-19.32-6.83-27.34-3.27,7-7,14.56-13.82,27.48l-13.37,25c-5.2,9.8-10.26,11.14-17.69,11.14s-12.48-1.34-17.68-11.14L882,295.22c-7.28-13.67-10.85-20.66-14-27.34-1.49,7.87-3.71,16.19-6.69,27.34L852,329.84H821.82l25.71-87.37c2.67-9.22,9.65-13.67,17.38-13.67s13.22,4,16.79,10.55Z"/><path class="cls-4" d="M1152.44,280.06c0,35.51-24.37,51.41-72.67,51.41s-72.66-15.9-72.66-51.41,24.22-51.26,72.66-51.26S1152.44,244.55,1152.44,280.06Zm-30.61,0c0-21.4-11.15-25.41-42.06-25.41s-42,4-42,25.41,11.15,25.56,42,25.56S1121.83,301.46,1121.83,280.06Z"/><path class="cls-4" d="M1183.49,230.43l44.73,66,46.66-66h36.25l-63.59,89.9c-4.31,5.79-10.41,11.14-19.92,11.14-9.21,0-15.3-4.9-19.61-11.14l-62.26-89.9Z"/><path class="cls-4" d="M1437.58,304.28l-19.76,25.56h-95.69V230.43h115.16l-19.92,25.86H1353v11.88h78.75l-17.68,22.59H1353v13.52Z"/><path class="cls-4" d="M1589.15,329.84H1548l-22.14-26.3h-47.26v26.3h-30.75V279h86.48c9.51,0,16.93-4.31,16.93-11.14,0-7.73-6.38-11.59-16.93-11.59h-86.48l20.06-25.86h63.89c22.59,0,51.11,7.13,51.11,35.51,0,15.46-9.65,28.24-26,31.51,3.42,2.52,7.13,6.09,14,13.07Z"/></g></svg>